<?xml version="1.0" encoding="UTF-8"?>
<svg width="800" height="600" viewBox="0 0 800 600" fill="none" xmlns="http://www.w3.org/2000/svg">
  <!-- Ana arka plan -->
  <rect width="800" height="600" fill="#F3F4F6"/>
  
  <!-- Dekoratif şekiller -->
  <circle cx="400" cy="300" r="200" fill="#E5E7EB" opacity="0.5"/>
  <circle cx="400" cy="300" r="150" fill="#D1D5DB" opacity="0.3"/>
  
  <!-- Ana illüstrasyon -->
  <g transform="translate(200, 150)">
    <!-- Bina silueti -->
    <path d="M0 200 L100 200 L100 100 L200 100 L200 200 L300 200 L300 50 L400 50 L400 200 L500 200 L500 150 L600 150 L600 200 L700 200 L700 0 L0 0 Z" fill="#4B5563"/>
    
    <!-- Pencere grupları -->
    <g fill="#9CA3AF">
      <rect x="20" y="20" width="40" height="40" rx="4"/>
      <rect x="80" y="20" width="40" height="40" rx="4"/>
      <rect x="140" y="20" width="40" height="40" rx="4"/>
      <rect x="200" y="20" width="40" height="40" rx="4"/>
      <rect x="260" y="20" width="40" height="40" rx="4"/>
      <rect x="320" y="20" width="40" height="40" rx="4"/>
      <rect x="380" y="20" width="40" height="40" rx="4"/>
      <rect x="440" y="20" width="40" height="40" rx="4"/>
      <rect x="500" y="20" width="40" height="40" rx="4"/>
      <rect x="560" y="20" width="40" height="40" rx="4"/>
    </g>
    
    <!-- İnsan figürleri -->
    <g transform="translate(350, 150)">
      <circle cx="0" cy="0" r="15" fill="#6B7280"/>
      <path d="M0 15 L0 50 L-10 70 L10 70 Z" fill="#6B7280"/>
    </g>
    <g transform="translate(400, 150)">
      <circle cx="0" cy="0" r="15" fill="#6B7280"/>
      <path d="M0 15 L0 50 L-10 70 L10 70 Z" fill="#6B7280"/>
    </g>
  </g>
  
  <!-- Dekoratif elementler -->
  <g transform="translate(100, 100)">
    <circle cx="0" cy="0" r="20" fill="#3B82F6" opacity="0.2"/>
    <circle cx="0" cy="0" r="15" fill="#3B82F6" opacity="0.3"/>
    <circle cx="0" cy="0" r="10" fill="#3B82F6" opacity="0.4"/>
  </g>
  
  <g transform="translate(700, 400)">
    <circle cx="0" cy="0" r="20" fill="#3B82F6" opacity="0.2"/>
    <circle cx="0" cy="0" r="15" fill="#3B82F6" opacity="0.3"/>
    <circle cx="0" cy="0" r="10" fill="#3B82F6" opacity="0.4"/>
  </g>
</svg> 